<svg xmlns="http://www.w3.org/2000/svg" viewBox="0 0 500 500"><g id="freepik--background-complete--inject-17"><rect y="382.4" width="500" height="0.25" style="fill:#ebebeb"></rect><rect x="416.78" y="398.49" width="33.12" height="0.25" style="fill:#ebebeb"></rect><rect x="322.53" y="401.21" width="8.69" height="0.25" style="fill:#ebebeb"></rect><rect x="396.59" y="389.21" width="19.19" height="0.25" style="fill:#ebebeb"></rect><rect x="52.46" y="390.89" width="43.19" height="0.25" style="fill:#ebebeb"></rect><rect x="104.56" y="390.89" width="6.33" height="0.25" style="fill:#ebebeb"></rect><rect x="131.47" y="395.11" width="93.68" height="0.25" style="fill:#ebebeb"></rect><path d="M237,337.8H43.91a5.71,5.71,0,0,1-5.7-5.71V60.66A5.71,5.71,0,0,1,43.91,55H237a5.71,5.71,0,0,1,5.71,5.71V332.09A5.71,5.71,0,0,1,237,337.8ZM43.91,55.2a5.46,5.46,0,0,0-5.45,5.46V332.09a5.46,5.46,0,0,0,5.45,5.46H237a5.47,5.47,0,0,0,5.46-5.46V60.66A5.47,5.47,0,0,0,237,55.2Z" style="fill:#ebebeb"></path><path d="M453.31,337.8H260.21a5.72,5.72,0,0,1-5.71-5.71V60.66A5.72,5.72,0,0,1,260.21,55h193.1A5.71,5.71,0,0,1,459,60.66V332.09A5.71,5.71,0,0,1,453.31,337.8ZM260.21,55.2a5.47,5.47,0,0,0-5.46,5.46V332.09a5.47,5.47,0,0,0,5.46,5.46h193.1a5.47,5.47,0,0,0,5.46-5.46V60.66a5.47,5.47,0,0,0-5.46-5.46Z" style="fill:#ebebeb"></path><rect x="205.77" y="298.39" width="98.01" height="80.52" transform="translate(509.54 677.3) rotate(180)" style="fill:#e0e0e0"></rect><path d="M205.1,300.32V377h-3.94v4.21H308.38V377h-2.94V300.32h2.94v-4.21H201.16v4.21ZM282.92,377h-6.66V300.32h6.66ZM286,300.32h6.67V377H286ZM273.19,377h-6.66V300.32h6.66Zm-9.72,0H256.8V300.32h6.67Zm-9.73,0h-6.67V300.32h6.67ZM244,377h-6.66V300.32H244Zm-9.73,0h-6.66V300.32h6.66Zm-9.72,0h-6.67V300.32h6.67Zm77.82,0h-6.67V300.32h6.67Zm-94.22-76.66h6.67V377h-6.67Z" style="fill:#ebebeb"></path><rect x="205.77" y="212.93" width="98.01" height="80.52" transform="translate(509.54 506.37) rotate(180)" style="fill:#f0f0f0"></rect><path d="M205.1,214.86v76.65h-3.94v4.21H308.38v-4.21h-2.94V214.86h2.94v-4.21H201.16v4.21Zm77.82,76.65h-6.66V214.86h6.66ZM286,214.86h6.67v76.65H286Zm-12.79,76.65h-6.66V214.86h6.66Zm-9.72,0H256.8V214.86h6.67Zm-9.73,0h-6.67V214.86h6.67Zm-9.73,0h-6.66V214.86H244Zm-9.73,0h-6.66V214.86h6.66Zm-9.72,0h-6.67V214.86h6.67Zm77.82,0h-6.67V214.86h6.67Zm-94.22-76.65h6.67v76.65h-6.67Z" style="fill:#fafafa"></path><circle cx="247.75" cy="96.2" r="23.55" transform="translate(4.54 203.36) rotate(-45)" style="fill:#e0e0e0"></circle><circle cx="247.75" cy="96.2" r="20.03" transform="translate(-12.14 151.81) rotate(-33.3)" style="fill:#f0f0f0"></circle><polyline points="248.7 82.46 248.7 96.46 257.98 91.21" style="fill:#f0f0f0;stroke:#e0e0e0;stroke-linecap:round;stroke-linejoin:round;stroke-width:2px"></polyline><rect x="353.46" y="98.63" width="90.62" height="120.03" style="fill:#f5f5f5"></rect><rect x="357.33" y="102.33" width="82.91" height="112.62" style="fill:#e6e6e6"></rect><path d="M440.23,102.33V215h-82.9v-3.59c8.36-8.49,24.2-17.37,25.16-23.91,1.47-9.93-15.35-11-9-25.45s44.37-9.45,52.9-23.47-2.92-19.38-7.31-27.18c-1.53-2.71-.84-5.95.69-9Z" style="fill:#ebebeb"></path><path d="M393.62,119.8l7.64-4.91c1.63,2.55,0,10.68,0,10.68l4.23,8.41s-8.45,11.36-16.9,12.69-22.76-7.46-22.76-7.46l2.39-8.87a15,15,0,0,1-2.39-13.22l9.62,4.08S385.76,114.8,393.62,119.8Z" style="fill:#f0f0f0"></path><polygon points="381.92 132.64 388.26 131.75 385.74 135.65 381.92 132.64" style="fill:#e0e0e0"></polygon><path d="M377.1,131c0,.83-.34,1.5-.75,1.5s-.75-.67-.75-1.5.34-1.49.75-1.49S377.1,130.14,377.1,131Z" style="fill:#e0e0e0"></path><path d="M393.58,129.35c.13.81-.09,1.53-.5,1.59s-.84-.54-1-1.35.1-1.53.5-1.59S393.45,128.54,393.58,129.35Z" style="fill:#e0e0e0"></path><path d="M385.74,135.65s-.14,3.73-3.25,3.49a2.92,2.92,0,0,0,2.2,0s.91,3.28,2.19,3.28,1.38-3.72,1.38-3.72,1.67.12,2.34-.79c0,0-3.84,1.77-4.63-3.29Z" style="fill:#e0e0e0"></path><path d="M368.72,127.86s1.46-3.47,3.47-4.93l-5.54-4S365.3,124.63,368.72,127.86Z" style="fill:#e0e0e0"></path><path d="M396,120.92s3.17,1.83,4.21,3.78c0,0,1.46-4.58.36-7.44Z" style="fill:#e0e0e0"></path><path d="M420.38,167.56c-2.25-1.39-5.06-6.89-17.05-5.26s-14.26,11-3.53,16.25S423.9,169.73,420.38,167.56Z" style="fill:#e0e0e0"></path><path d="M419.42,167.17c-7.59-2.72-14.14-6.46-18.28,4.15,0,0-8.41-3.66-9.26,2.07s1.83,16.21,8.29,21.45,19.62,6.71,26.08,1.71S432.34,171.81,419.42,167.17Z" style="fill:#f5f5f5"></path><polygon points="396.02 172.05 401 174.85 396.02 176.44 396.02 172.05" style="fill:#e0e0e0"></polygon><path d="M397.12,175a7.26,7.26,0,0,0,0,7c1.95,4,6.21,2.18,6.21,2.18s-4.44,4.75-7.08,2.92,0-4.26,0-4.26-2.44-1.34-3.41-5.37c0,0,1.17,2.26,2.45,2.69C395.29,180.1,395,176.09,397.12,175Z" style="fill:#e0e0e0"></path><path d="M411.76,176.65c-.23.79-.74,1.34-1.14,1.22s-.53-.85-.3-1.64.74-1.34,1.14-1.22S412,175.86,411.76,176.65Z" style="fill:#e0e0e0"></path><path d="M403.22,171.71c-.23.79-.74,1.34-1.13,1.23s-.53-.86-.3-1.65.74-1.34,1.13-1.22S403.45,170.92,403.22,171.71Z" style="fill:#e0e0e0"></path><path d="M428.73,170.75c-5-5-12.84.43-13,11.19s-2.6,12.7,2.11,12.86,13.16,1,15.28-1.62S433.44,175.46,428.73,170.75Z" style="fill:#e0e0e0"></path><rect x="287.69" y="114.57" width="46.25" height="61.26" style="fill:#ebebeb"></rect><rect x="289.66" y="116.46" width="42.31" height="57.48" style="fill:#f5f5f5"></rect><path d="M304.72,150c1.37-6.05,14.34-8.87,18.71-3.92s-.24,14.17-8.32,14.52C307.42,161,302.64,159.17,304.72,150Z" style="fill:#ebebeb"></path><path d="M312.58,139.67c-3.87.06-5-9.15-2-9.94S317.73,139.6,312.58,139.67Z" style="fill:#ebebeb"></path><path d="M320.5,139.67c-1.39-.73-4.22-8.57-.8-9.06S327.35,143.29,320.5,139.67Z" style="fill:#ebebeb"></path><path d="M303.75,143.57c.81-.51,2.11-8-2.77-8.89S299.13,146.48,303.75,143.57Z" style="fill:#ebebeb"></path><path d="M301.51,153.2c1.67-2.62-.66-7.25-3.83-6.86S298.49,157.94,301.51,153.2Z" style="fill:#ebebeb"></path></g><g id="freepik--Shadow--inject-17"><ellipse id="freepik--path--inject-17" cx="250" cy="416.24" rx="193.89" ry="11.32" style="fill:#f5f5f5"></ellipse></g><g id="freepik--Cages--inject-17"><rect x="68.85" y="159.99" width="122.74" height="100.84" transform="translate(260.44 420.83) rotate(180)" style="fill:#5082DA"></rect><rect x="68.84" y="160" width="122.75" height="100.84" style="fill:#fff;opacity:0.4;isolation:isolate"></rect><path d="M131.73,229.84a16.22,16.22,0,0,0,3.84-.44,2.5,2.5,0,0,0-1.27-4.84c-.06,0-5.3,1.3-7.85-1.75a7.62,7.62,0,0,1-1.82-6.37c.68-3.34,4-6.59,9.45-9.38,10.49-5.32,8.63-11.29,7.81-13-1.71-3.57-6.28-5.61-9.38-4.2a2.5,2.5,0,1,0,2.07,4.55,3.46,3.46,0,0,1,2.87,2c.68,1.73-1.48,4.12-5.63,6.22-7,3.56-11.07,7.87-12.09,12.84A12.55,12.55,0,0,0,122.61,226,11.54,11.54,0,0,0,131.73,229.84Z" style="fill:#5082DA"></path><g style="opacity:0.8;isolation:isolate"><path d="M131.73,229.84a16.22,16.22,0,0,0,3.84-.44,2.5,2.5,0,0,0-1.27-4.84c-.06,0-5.3,1.3-7.85-1.75a7.62,7.62,0,0,1-1.82-6.37c.68-3.34,4-6.59,9.45-9.38,10.49-5.32,8.63-11.29,7.81-13-1.71-3.57-6.28-5.61-9.38-4.2a2.5,2.5,0,1,0,2.07,4.55,3.46,3.46,0,0,1,2.87,2c.68,1.73-1.48,4.12-5.63,6.22-7,3.56-11.07,7.87-12.09,12.84A12.55,12.55,0,0,0,122.61,226,11.54,11.54,0,0,0,131.73,229.84Z" style="fill:#fff"></path></g><path d="M162.68,233.51c.21-.48.43-1,.66-1.46,2.29-.33,4.57-.74,6.85-1.11a182.21,182.21,0,0,1-6.52,26.26s3.75-.15,2.48,2.27h-5.88C159.6,258.66,166.17,244.35,162.68,233.51Z" style="fill:#5082DA"></path><path d="M150.65,233.71s-2.72,8.27-8.09,13.68l4.05,9.55s3.25.74,2.59,2.53h-4.54s-6.27-10.49-6.53-11.61-1.45-12.73-1.45-12.73Z" style="fill:#5082DA"></path><path d="M162.68,233.51c.21-.48.43-1,.66-1.46,2.29-.33,4.57-.74,6.85-1.11a182.21,182.21,0,0,1-6.52,26.26s3.75-.15,2.48,2.27h-5.88C159.6,258.66,166.17,244.35,162.68,233.51Z" style="fill:#fff;opacity:0.8;isolation:isolate"></path><path d="M150.65,233.71s-2.72,8.27-8.09,13.68l4.05,9.55s3.25.74,2.59,2.53h-4.54s-6.27-10.49-6.53-11.61-1.45-12.73-1.45-12.73Z" style="fill:#fff;opacity:0.8;isolation:isolate"></path><path d="M131.22,226.48c3.33-4.7,9-2.57,25.5-8.2s9.89-23.21,9.89-23.21l5.5,4.42,5.84-3.36a9.2,9.2,0,0,1,2,8.31c-1.19,5.14-5,13.18-5.41,19.13l3.1,10.67s10.48,2.19,11.41,4.42-.66,5.78-.66,5.78l-2.91-.23,1.52-4c-4.81-1.62-13-1.77-14.7-2.57a18.45,18.45,0,0,1-6.1-5c-1.09.91-7.66,5.74-24.63,5.63,0,0-5.69,7.63-11.6,9.55l-.94,9.23s3.58.15,3.45,2.35h-6.33l-.62-13.05C129.29,236.61,128,231.05,131.22,226.48Z" style="fill:#5082DA"></path><path d="M131.22,226.48c3.33-4.7,9-2.57,25.5-8.2s9.89-23.21,9.89-23.21l5.5,4.42,5.84-3.36a9.2,9.2,0,0,1,2,8.31c-1.19,5.14-5,13.18-5.41,19.13l3.1,10.67s10.48,2.19,11.41,4.42-.66,5.78-.66,5.78l-2.91-.23,1.52-4c-4.81-1.62-13-1.77-14.7-2.57a18.45,18.45,0,0,1-6.1-5c-1.09.91-7.66,5.74-24.63,5.63,0,0-5.69,7.63-11.6,9.55l-.94,9.23s3.58.15,3.45,2.35h-6.33l-.62-13.05C129.29,236.61,128,231.05,131.22,226.48Z" style="fill:#fff;opacity:0.9;isolation:isolate"></path><path d="M177.32,196.39s.56-.49.76-.49.45.95.45.95Z" style="fill:#a24e3f"></path><path d="M172.11,199.49a12.45,12.45,0,0,0-1.87,1.91l-2.18-4.55Z" style="opacity:0.2;isolation:isolate"></path><polygon points="68.84 160 68.84 184.48 191.59 244.82 191.59 160 68.84 160" style="opacity:0.2;isolation:isolate"></polygon><path d="M68,162.41v96H63.08v5.27H197.36v-5.27h-3.68v-96h3.68v-5.27H63.08v5.27Zm97.47,96h-8.35v-96h8.35Zm3.83-96h8.35v96h-8.35Zm-16,96H145v-96h8.34Zm-12.18,0h-8.35v-96h8.35Zm-12.18,0h-8.35v-96h8.35Zm-12.18,0H108.4v-96h8.35Zm-12.19,0H96.22v-96h8.34Zm-12.18,0H84v-96h8.35Zm97.46,0h-8.35v-96h8.35Zm-118-96H80.2v96H71.85Z" style="fill:#5082DA"></path><g style="opacity:0.7000000000000001;isolation:isolate"><path d="M68,162.41v96H63.08v5.27H197.36v-5.27h-3.68v-96h3.68v-5.27H63.08v5.27Zm97.47,96h-8.35v-96h8.35Zm3.83-96h8.35v96h-8.35Zm-16,96H145v-96h8.34Zm-12.18,0h-8.35v-96h8.35Zm-12.18,0h-8.35v-96h8.35Zm-12.18,0H108.4v-96h8.35Zm-12.19,0H96.22v-96h8.34Zm-12.18,0H84v-96h8.35Zm97.46,0h-8.35v-96h8.35Zm-118-96H80.2v96H71.85Z" style="fill:#fff"></path></g><rect x="69.5" y="265.85" width="145.44" height="119.48" transform="translate(284.44 651.18) rotate(180)" style="fill:#5082DA"></rect><rect x="69.5" y="265.85" width="145.44" height="119.48" style="fill:#fff;opacity:0.4;isolation:isolate"></rect><path d="M88.38,353.42c16.29-6.71,43.5-3.81,56,10.32s6.5,18.29-10,18.79-59.53,0-59.53,0S64.38,363.31,88.38,353.42Z" style="fill:#5082DA"></path><path d="M88.38,353.42c16.29-6.71,43.5-3.81,56,10.32s6.5,18.29-10,18.79-59.53,0-59.53,0S64.38,363.31,88.38,353.42Z" style="fill:#fff;opacity:0.1;isolation:isolate"></path><path d="M94.63,362a13,13,0,0,1,6-5.66s1.36,7.67,0,10c0,0,3,4.57,2.51,8.07-.31,2.18-3.46,5.56-4.41,7.17-.25.42-4,1.15-5.66.7-.87-.24-9.12-.07-10.25-.27s-3.75-2.67-3.75-2.67l1.53,3.23,29.05.16s-5-1.25-4.66-4,8-4.58,14.5-2.91,21.33,0,20.66-5.17-6.5-4.33-6.5-4.33,3.34,3,3.17,4.83-9,5-13.17,3.84-9.16-6.84-9-9.5,4-3.84,4-3.84-5.28-.91-6.89.92-.77,7.92-.77,7.92h-2.67s-1.55-4.66-4.33-6.67c0,0,.33-7.38-1.84-9.94C102.21,353.92,96.71,354,94.63,362Z" style="opacity:0.4;isolation:isolate"></path><path d="M82.88,365.19s-1.67-1.41-6.17-1.45c0,0-1.5,3.95,0,6.79,0,0,.34-3,1.67-4.17A5.62,5.62,0,0,1,82.88,365.19Z" style="opacity:0.4;isolation:isolate"></path><path d="M101.71,373.69s-.33,4-3.33,2.5" style="fill:none;stroke:#263238;stroke-linecap:round;stroke-linejoin:round;stroke-width:0.5px"></path><path d="M92.55,377.36s-1.17,4.14-5.34,1.41" style="fill:none;stroke:#263238;stroke-linecap:round;stroke-linejoin:round;stroke-width:0.5px"></path><polygon points="98.38 380.21 96.3 380.86 97.63 381.53 98.38 380.21" style="opacity:0.4;isolation:isolate"></polygon><polygon points="69.5 265.85 69.5 294.86 214.94 366.36 214.94 265.85 69.5 265.85" style="opacity:0.2;isolation:isolate"></polygon><path d="M68.51,268.71V382.47H62.67v6.24h159.1v-6.24h-4.36V268.71h4.36v-6.24H62.67v6.24ZM184,382.47h-9.89V268.71H184Zm4.54-113.76h9.89V382.47h-9.89Zm-19,113.76h-9.89V268.71h9.89Zm-14.43,0h-9.89V268.71h9.89Zm-14.44,0H130.8V268.71h9.89Zm-14.43,0h-9.9V268.71h9.9Zm-14.44,0h-9.89V268.71h9.89Zm-14.43,0h-9.9V268.71h9.9Zm115.48,0H203V268.71h9.89ZM73.06,268.71H83V382.47H73.06Z" style="fill:#5082DA"></path><g style="opacity:0.7000000000000001;isolation:isolate"><path d="M68.51,268.71V382.47H62.67v6.24h159.1v-6.24h-4.36V268.71h4.36v-6.24H62.67v6.24ZM184,382.47h-9.89V268.71H184Zm4.54-113.76h9.89V382.47h-9.89Zm-19,113.76h-9.89V268.71h9.89Zm-14.43,0h-9.89V268.71h9.89Zm-14.44,0H130.8V268.71h9.89Zm-14.43,0h-9.9V268.71h9.9Zm-14.44,0h-9.89V268.71h9.89Zm-14.43,0h-9.9V268.71h9.9Zm115.48,0H203V268.71h9.89ZM73.06,268.71H83V382.47H73.06Z" style="fill:#fff"></path></g></g><g id="freepik--Plant--inject-17"><path d="M64.56,366.17s-5.65-12.33.8-24.48,8.33-15,4.21-17.5-6,9.72-6,9.72-3.47-8.4-.6-17.19,4.66-23.11.74-24.65-.74,17.86-4.14,24.48a57.1,57.1,0,0,1-3.32-14.43c-.46-7.06.27-18.33-2.82-21.22s-5.07-.89-2,14.69a163.44,163.44,0,0,1,3,28.25s-6.7-20.44-11.2-21-4.5,6-.64,11.76,11.27,16,12.49,21.32c0,0-7.36-15.38-14-10.66s5.77,14,11.28,17.36S61.71,367,61.71,367Z" style="fill:#5082DA"></path><path d="M64.56,366.17s-5.65-12.33.8-24.48,8.33-15,4.21-17.5-6,9.72-6,9.72-3.47-8.4-.6-17.19,4.66-23.11.74-24.65-.74,17.86-4.14,24.48a57.1,57.1,0,0,1-3.32-14.43c-.46-7.06.27-18.33-2.82-21.22s-5.07-.89-2,14.69a163.44,163.44,0,0,1,3,28.25s-6.7-20.44-11.2-21-4.5,6-.64,11.76,11.27,16,12.49,21.32c0,0-7.36-15.38-14-10.66s5.77,14,11.28,17.36S61.71,367,61.71,367Z" style="opacity:0.2;isolation:isolate"></path><path d="M60.1,371.22s5.5-12.41-1.1-24.46-8.51-14.89-4.42-17.44S60.7,339,60.7,339s3.36-8.45.39-17.2-4.93-23-1-24.63,1,17.85,4.43,24.41a57.22,57.22,0,0,0,3.15-14.47c.38-7.07-.48-18.33,2.57-21.27s5-1,2.21,14.66a163.35,163.35,0,0,0-2.68,28.29s6.46-20.54,11-21.2,4.57,6,.79,11.76-11.09,16.19-12.24,21.5c0,0,7.17-15.49,13.84-10.88S77.48,344,72,347.45,63,372,63,372Z" style="fill:#5082DA"></path><polygon points="85.47 362.37 40.02 362.37 43.7 394.89 81.79 394.89 85.47 362.37" style="fill:#263238"></polygon></g><g id="freepik--Carrier--inject-17"><path d="M401.65,316.38l.79-7.48a1.7,1.7,0,0,1,1.69-1.53h18.3a1.7,1.7,0,0,1,1.7,1.53l.79,7.48,3.29-.35-.78-7.48a5,5,0,0,0-5-4.49h-18.3a5,5,0,0,0-5,4.5l-.79,7.47Z" style="fill:#5082DA"></path><g style="opacity:0.30000000000000004;isolation:isolate"><path d="M401.65,316.38l.79-7.48a1.7,1.7,0,0,1,1.69-1.53h18.3a1.7,1.7,0,0,1,1.7,1.53l.79,7.48,3.29-.35-.78-7.48a5,5,0,0,0-5-4.49h-18.3a5,5,0,0,0-5,4.5l-.79,7.47Z"></path></g><path d="M358.46,351.68v4.41a3.06,3.06,0,0,0,3.06,3.06H362l9,30.13a7.85,7.85,0,0,0,7.52,5.61h65.13a7.82,7.82,0,0,0,7.51-5.61l9-30.13h.48a3.06,3.06,0,0,0,3.06-3.06v-4.41a3.06,3.06,0,0,0-3.06-3.06h-.48l-9-30.13a7.84,7.84,0,0,0-7.51-5.61H378.48a7.86,7.86,0,0,0-7.52,5.61l-9,30.13h-.48A3.06,3.06,0,0,0,358.46,351.68Z" style="fill:#5082DA"></path><path d="M362,359.15l9,30.13a7.85,7.85,0,0,0,7.52,5.61h65.13a7.82,7.82,0,0,0,7.51-5.61l9-30.13Z" style="fill:#fff;opacity:0.30000000000000004;isolation:isolate"></path><g style="opacity:0.4;isolation:isolate"><path d="M451.33,340.18a1.13,1.13,0,0,0,1.07-1.41L447.3,321a1.11,1.11,0,0,0-2.13.61l5.1,17.77A1.11,1.11,0,0,0,451.33,340.18Z"></path></g><g style="opacity:0.4;isolation:isolate"><path d="M444.86,340.18a1.06,1.06,0,0,0,.31-.05,1.09,1.09,0,0,0,.76-1.36L440.83,321a1.11,1.11,0,0,0-1.37-.76,1.12,1.12,0,0,0-.76,1.37l5.1,17.77A1.11,1.11,0,0,0,444.86,340.18Z"></path></g><g style="opacity:0.4;isolation:isolate"><path d="M438.4,340.18a1,1,0,0,0,.3-.05,1.09,1.09,0,0,0,.76-1.36L434.36,321a1.1,1.1,0,1,0-2.12.61l5.09,17.77A1.12,1.12,0,0,0,438.4,340.18Z"></path></g><g style="opacity:0.4;isolation:isolate"><path d="M431.93,340.18a1,1,0,0,0,.3-.05,1.09,1.09,0,0,0,.76-1.36L427.89,321a1.1,1.1,0,1,0-2.12.61l5.1,17.77A1.11,1.11,0,0,0,431.93,340.18Z"></path></g><g style="opacity:0.4;isolation:isolate"><path d="M425.46,340.18a1,1,0,0,0,.3-.05,1.09,1.09,0,0,0,.76-1.36L421.42,321a1.1,1.1,0,1,0-2.12.61l5.1,17.77A1.11,1.11,0,0,0,425.46,340.18Z"></path></g><g style="opacity:0.4;isolation:isolate"><path d="M419,340.18a1.18,1.18,0,0,0,.31-.05,1.1,1.1,0,0,0,.75-1.36L415,321a1.11,1.11,0,0,0-2.13.61l5.1,17.77A1.11,1.11,0,0,0,419,340.18Z"></path></g><g style="opacity:0.4;isolation:isolate"><path d="M451.33,367.6a1.1,1.1,0,0,1,.31,0,1.11,1.11,0,0,1,.76,1.36l-5.1,17.77a1.11,1.11,0,0,1-2.13-.6l5.1-17.77A1.1,1.1,0,0,1,451.33,367.6Z"></path></g><g style="opacity:0.4;isolation:isolate"><path d="M444.86,367.6a1.06,1.06,0,0,1,.31,0,1.1,1.1,0,0,1,.76,1.36l-5.1,17.77a1.11,1.11,0,0,1-2.13-.6l5.1-17.77A1.1,1.1,0,0,1,444.86,367.6Z"></path></g><g style="opacity:0.4;isolation:isolate"><path d="M438.4,367.6a1,1,0,0,1,.3,0,1.1,1.1,0,0,1,.76,1.36l-5.1,17.77a1.1,1.1,0,1,1-2.12-.6l5.09-17.77A1.11,1.11,0,0,1,438.4,367.6Z"></path></g><g style="opacity:0.4;isolation:isolate"><path d="M431.93,367.6a1,1,0,0,1,.3,0A1.1,1.1,0,0,1,433,369l-5.1,17.77a1.1,1.1,0,0,1-2.12-.6l5.1-17.77A1.1,1.1,0,0,1,431.93,367.6Z"></path></g><g style="opacity:0.4;isolation:isolate"><path d="M425.46,367.6a1,1,0,0,1,.3,0,1.1,1.1,0,0,1,.76,1.36l-5.1,17.77a1.1,1.1,0,0,1-2.12-.6l5.1-17.77A1.1,1.1,0,0,1,425.46,367.6Z"></path></g><g style="opacity:0.4;isolation:isolate"><path d="M419,367.6a1.15,1.15,0,0,1,.31,0,1.1,1.1,0,0,1,.75,1.36L415,386.77a1.11,1.11,0,0,1-2.13-.6l5.1-17.77A1.1,1.1,0,0,1,419,367.6Z"></path></g><path d="M361.52,348.62h5.84l6.42-22.81a5,5,0,0,1,4.83-3.66h19.57a5,5,0,0,1,4.84,3.66l6.42,22.81h51.12a3.06,3.06,0,0,1,3.06,3.06v4.41a3.06,3.06,0,0,1-3.06,3.06H409.44L403,382a5,5,0,0,1-4.84,3.66H378.61a5,5,0,0,1-4.83-3.66l-6.43-22.81h-5.83a3.06,3.06,0,0,1-3.06-3.06v-4.41A3.06,3.06,0,0,1,361.52,348.62Z" style="fill:#5082DA"></path><path d="M358.46,351.68v4.41a3.06,3.06,0,0,0,3.06,3.06H362l9,30.13a7.85,7.85,0,0,0,7.52,5.61h19.84a7.82,7.82,0,0,0,7.51-5.61l9-30.13h.49a3.06,3.06,0,0,0,3.06-3.06v-4.41a3.06,3.06,0,0,0-3.06-3.06h-.49l-9-30.13a7.84,7.84,0,0,0-7.51-5.61H378.48a7.86,7.86,0,0,0-7.52,5.61l-9,30.13h-.48A3.06,3.06,0,0,0,358.46,351.68Z" style="opacity:0.2;isolation:isolate"></path><path d="M361.52,348.62h5.84l6.42-22.81a5,5,0,0,1,4.83-3.66h19.57a5,5,0,0,1,4.84,3.66l6.42,22.81h51.12a3.06,3.06,0,0,1,3.06,3.06v4.41a3.06,3.06,0,0,1-3.06,3.06H409.44L403,382a5,5,0,0,1-4.84,3.66H378.61a5,5,0,0,1-4.83-3.66l-6.43-22.81h-5.83a3.06,3.06,0,0,1-3.06-3.06v-4.41A3.06,3.06,0,0,1,361.52,348.62Z" style="fill:#fff;opacity:0.4;isolation:isolate"></path><g style="opacity:0.4"><path d="M397.67,380.67a1.11,1.11,0,0,0,1.11-1.11V330.19a1.11,1.11,0,1,0-2.21,0v49.37A1.1,1.1,0,0,0,397.67,380.67Z"></path></g><g style="opacity:0.4"><path d="M392.46,380.67a1.11,1.11,0,0,0,1.11-1.11V330.19a1.11,1.11,0,1,0-2.21,0v49.37A1.1,1.1,0,0,0,392.46,380.67Z"></path></g><g style="opacity:0.4"><path d="M387.26,380.67a1.1,1.1,0,0,0,1.1-1.11V330.19a1.11,1.11,0,1,0-2.21,0v49.37A1.11,1.11,0,0,0,387.26,380.67Z"></path></g><g style="opacity:0.4"><path d="M382.05,380.67a1.1,1.1,0,0,0,1.1-1.11V330.19a1.11,1.11,0,1,0-2.21,0v49.37A1.11,1.11,0,0,0,382.05,380.67Z"></path></g><g style="opacity:0.4"><path d="M376.84,380.67a1.1,1.1,0,0,0,1.1-1.11V330.19a1.1,1.1,0,1,0-2.2,0v49.37A1.1,1.1,0,0,0,376.84,380.67Z"></path></g></g><g id="freepik--character-2--inject-17"><path d="M353.93,289c3.43-.26,4.86,0,8.3,0s6.7-1.6,8.54-1.44,11,2.62,11,2.62,4.35,4.37,7.91,34.83c0,0-21.54,3.64-34.42,1.34S353.93,289,353.93,289Z" style="fill:#5082DA"></path><path d="M353.93,289c3.43-.26,4.86,0,8.3,0s6.7-1.6,8.54-1.44,11,2.62,11,2.62,4.35,4.37,7.91,34.83c0,0-21.54,3.64-34.42,1.34S353.93,289,353.93,289Z" style="fill:#fff;opacity:0.5;isolation:isolate"></path><path d="M364.4,254.88s-4.57-7.12-17-5c-14.28,2.39-19.12,20.08-7.13,38,0,0,10.33,2.75,30.54-2.6C370.77,285.22,379.38,259.33,364.4,254.88Z" style="fill:#263238"></path><path d="M380.43,334.8c14.05,19.89,1.28,41.6-40.92,63.36L394,399.42l4.84,5.47s-46,6.12-70.24,6.12c-14.46,0-13.25-13,2.84-31.58a184.85,184.85,0,0,1,28.38-26.3,46.66,46.66,0,0,1,2.53-7.64Z" style="fill:#eec1bb"></path><path d="M380.43,334.8c14.05,19.89,1.28,41.6-40.92,63.36L394,399.42l4.84,5.47s-46,6.12-70.24,6.12c-14.46,0-13.25-13,2.84-31.58a184.85,184.85,0,0,1,28.38-26.3,46.66,46.66,0,0,1,2.53-7.64Z" style="opacity:0.1;isolation:isolate"></path><path d="M348.22,304.83l-.16.61c-.56,2.14-2.53,9.51-4.94,16.46a61,61,0,0,1-5,11.5c-.12.19-.23.36-.35.52-3,4.31-27.56,7.07-27.56,7.07a3.83,3.83,0,0,1-1.06,2.11c-.78.54-5.54.4-7.91.2s-4.88-8.5-3.76-8.75c.6-.13,4.48.1,8.91.25.82,0,2.44,1.64,2.44,1.64s18.54-5.52,20.29-8.17c5.43-8.27,8-35.26,13.21-35.61C347.87,292.27,348.22,304.83,348.22,304.83Z" style="fill:#eec1bb"></path><path d="M348.06,305.44c-.56,2.14-2.53,9.51-4.94,16.46a91.73,91.73,0,0,1-1.61-27.75Z" style="opacity:0.2;isolation:isolate"></path><path d="M389.63,398.8c-.54.49,5.74,6.83,5.74,6.83s7.8.47,12.25,3.66,4.89-1.15,1-5.64l-9.67-11.09C396.16,389.37,395.18,393.73,389.63,398.8Z" style="fill:#263238"></path><path d="M389.63,398.8c-.54.49,5.74,6.83,5.74,6.83s7.8.47,12.25,3.66,4.89-1.15,1-5.64l-9.67-11.09C396.16,389.37,395.18,393.73,389.63,398.8Z" style="opacity:0.2;isolation:isolate"></path><polygon points="406.43 405.09 390.8 404.89 391.55 413.33 411.26 410.56 406.43 405.09" style="fill:#eec1bb"></polygon><path d="M362.38,345.49l30.45-5c-.94.15-6.85-12.94-8.2-17.61-1.86-6.44-3.31-18.76-2.05-26.73v-.06a5.92,5.92,0,0,0-5.35-6.82c-2.43-.19-4.87-.28-7.31-.29a104.56,104.56,0,0,0-14.47.85c-6.16,1-13.12,2.84-13.12,2.84s-1,.41-.52,7C342.25,305.92,344.6,326.22,362.38,345.49Z" style="fill:#5082DA"></path><path d="M351,283.69s3.92,2.54,4.6,4.21a1.87,1.87,0,0,1,.1.33,22.84,22.84,0,0,1,.4,2.88c-1.15,3.36,3.14,5.28,3.14,5.28,7.64-2.3,9.43-6,9.43-6-6.28-2.47-7.49-14.52-7.49-14.52l-3,2.34Z" style="fill:#eec1bb"></path><path d="M351,283.69s3.92,2.54,4.6,4.21a1.87,1.87,0,0,1,.1.33,12.79,12.79,0,0,0,5-10.9l-2.54.86Z" style="opacity:0.2;isolation:isolate"></path><path d="M349.64,256.9c-8.21,1.12-10.25,5.87-9.7,14.42.69,10.67,4.05,17.87,14,14.21C367.48,280.56,363.28,255,349.64,256.9Z" style="fill:#eec1bb"></path><path d="M345.18,270.13a17.56,17.56,0,0,1-1.92,3.74,2.27,2.27,0,0,0,2.29.63Z" style="fill:#d4827d"></path><path d="M350.12,268.78c.07.68.5,1.18.95,1.13s.76-.64.68-1.32-.5-1.18-.95-1.13S350,268.1,350.12,268.78Z" style="fill:#263238"></path><path d="M351,267.47l-1.54-.41S350.32,268.22,351,267.47Z" style="fill:#263238"></path><path d="M341.69,269.58c.07.68.5,1.19.95,1.14s.76-.64.68-1.32-.5-1.18-.95-1.13S341.61,268.91,341.69,269.58Z" style="fill:#263238"></path><path d="M342.56,268.28l-1.54-.41S341.9,269,342.56,268.28Z" style="fill:#263238"></path><path d="M349.43,263.1a4.31,4.31,0,0,1,3.73.75" style="fill:none;stroke:#263238;stroke-linecap:round;stroke-linejoin:round;stroke-width:0.707962px"></path><path d="M343.41,263.56a3.87,3.87,0,0,0-3.18,1.12" style="fill:none;stroke:#263238;stroke-linecap:round;stroke-linejoin:round;stroke-width:0.707962px"></path><path d="M360.5,269.52s-4.76-6.23-4.89-11.52c0,0-17.17-4.43-15.73,12.2,0,0-3.58-14.45,10.49-16.7s17.31,17.13,10.86,24.28C361.23,277.78,363.45,273.41,360.5,269.52Z" style="fill:#263238"></path><path d="M359.4,271.43a3.63,3.63,0,0,1,3.43-3.82c2.58-.07,4.5,5-1.66,7.11C360.29,275,359.66,274.21,359.4,271.43Z" style="fill:#eec1bb"></path><path d="M346,277a22.28,22.28,0,0,1,.83,3l.54,0c2.48-.12,3.6-1,4.08-1.92a3.13,3.13,0,0,0,.32-1.48,3.24,3.24,0,0,0-.11-.86,11.63,11.63,0,0,1-4.82,1.23C346.32,277,346,277,346,277Z" style="fill:#263238"></path><path d="M346.83,276.9l.27.88c2.34-.12,4-.51,4.66-1.25a3.24,3.24,0,0,0-.11-.86A11.63,11.63,0,0,1,346.83,276.9Z" style="fill:#fff"></path><path d="M347.36,279.93c2.48-.12,3.6-1,4.08-1.92a7.92,7.92,0,0,0-2.73.67A3.06,3.06,0,0,0,347.36,279.93Z" style="fill:#de5753"></path><path d="M351.94,256.29s-.24,14,13.34,14.43l5.49,14.5s8.93-27.26-12.59-32.4Z" style="fill:#263238"></path><path d="M392.83,340.47c14.05,19.88,1.28,41.6-40.92,63.35l54.52,1.27,4.83,5.47s-46,6.12-70.24,6.12c-14.46,0-15.09-14.77,2.84-31.58,15.12-14.17,26.69-27.75,26.69-27.75-4.88-3.49-8.17-11.86-8.17-11.86Z" style="fill:#eec1bb"></path><path d="M402.6,404.51c-.54.49,5.75,6.83,5.75,6.83s7.8.47,12.24,3.66,4.89-1.15,1-5.64l-9.66-11.09C409.13,395.08,408.15,399.44,402.6,404.51Z" style="fill:#263238"></path><path d="M391.56,338.82s7.45,5.93,7.31,19S390,382.07,364.57,398l-38.11-15.43s21-21.59,32.24-29.46a66.81,66.81,0,0,1,3.68-7.64Z" style="fill:#263238"></path><path d="M358.7,305.52s16.33-15.38,23.06-15.38c0,0-6.49-2.51-11-2.62,0,0-8.5,7.76-12.95,16,0,0-4.63-8.4-3.89-14.58,0,0-7.93,1.13-9.23,3.69s5,10.89,11.15,12.87c0,0-7.79,12.17-5.74,25.12l3.83.46s-.77-17.4,3.69-24c0,0,4.78,19.55,4.6,25.32l5-1S365.32,313.43,358.7,305.52Z" style="fill:#5082DA"></path><path d="M358.7,305.52s16.33-15.38,23.06-15.38c0,0-6.49-2.51-11-2.62,0,0-8.5,7.76-12.95,16,0,0-4.63-8.4-3.89-14.58,0,0-7.93,1.13-9.23,3.69s5,10.89,11.15,12.87c0,0-7.79,12.17-5.74,25.12l3.83.46s-.77-17.4,3.69-24c0,0,4.78,19.55,4.6,25.32l5-1S365.32,313.43,358.7,305.52Z" style="fill:#fff;opacity:0.6000000000000001;isolation:isolate"></path><path d="M298.73,330.84s-2,23.51,1,36c0,0-11,11.14-9.5,20.34a38.2,38.2,0,0,0,5.35,14.7l-1.09,2.46s-4.16,4.67-3.07,7.73,5.44,5,7.62.58,4.55-9.59,4.55-10.58-.6-5.89.69-9.85,7.44-8,7.44-8,5.4,9.4,13,10.58,12.27-6.23,12.27-6.23a8.66,8.66,0,0,1-3.95,1.68s3.95-2.76,3.95-7.22a24.45,24.45,0,0,1-3,1.59s1.38-3.54.89-6.07c0,0-3.76,5.47-9.4,5.77S320,368.75,320,368.75l6.42-26.44-1.68-12.05-7-8.92Z" style="fill:#263238"></path><path d="M298.73,330.84s-2,23.51,1,36c0,0-11,11.14-9.5,20.34a38.2,38.2,0,0,0,5.35,14.7l-1.09,2.46s-4.16,4.67-3.07,7.73,5.44,5,7.62.58,4.55-9.59,4.55-10.58-.6-5.89.69-9.85,7.44-8,7.44-8,5.4,9.4,13,10.58,12.27-6.23,12.27-6.23a8.66,8.66,0,0,1-3.95,1.68s3.95-2.76,3.95-7.22a24.45,24.45,0,0,1-3,1.59s1.38-3.54.89-6.07c0,0-3.76,5.47-9.4,5.77S320,368.75,320,368.75l6.42-26.44-1.68-12.05-7-8.92Z" style="fill:#fff;opacity:0.7000000000000001;isolation:isolate"></path><path d="M299.56,330.33s-9.52-4.14-12.79-2.1-3.71,10-2.51,11.39,5.11,2.72,5.33,1,.84-6.72.84-6.72,4.64,5.67,10.05,6.59,10.42-5.79,9-10.08S303.46,327.61,299.56,330.33Z" style="fill:#263238"></path><path d="M299.56,330.33s-9.52-4.14-12.79-2.1-3.71,10-2.51,11.39,5.11,2.72,5.33,1,.84-6.72.84-6.72,4.64,5.67,10.05,6.59,10.42-5.79,9-10.08S303.46,327.61,299.56,330.33Z" style="fill:#fff;opacity:0.7000000000000001;isolation:isolate"></path><path d="M313.32,392.65s2.67,3.86,2.08,6.43-4.16,2.43-5.25,4.7-5.83,7.71-8.7,7.32-5-1.16-4.75-4.09,5.84-6.12,5.84-6.12l3.26-2.43s-5.34-2-7.51-7,8.33-16.06,8.92-16.69l0,0c4.8-4.65,9.34-5.34,9.34-5.34a7.11,7.11,0,0,0-4,0c-.72-12.76,4.49-25.22,4.49-25.22,5.63-1.49,6.47-6.11,6.47-6.11s-1-4.87-2.71-7.24-4.52-.71-4.74-.59c2.12-1.82,2.95-7.92,2.95-7.92l-2.13-3.7c3.66,3.14,8.94,8.47,9.95,13.71,1.58,8.19,3.26,27.45-1.39,40.56S313.32,392.65,313.32,392.65Z" style="fill:#263238"></path><path d="M313.32,392.65s2.67,3.86,2.08,6.43-4.16,2.43-5.25,4.7-5.83,7.71-8.7,7.32-5-1.16-4.75-4.09,5.84-6.12,5.84-6.12l3.26-2.43s-5.34-2-7.51-7,8.33-16.06,8.92-16.69l0,0c4.8-4.65,9.34-5.34,9.34-5.34a7.11,7.11,0,0,0-4,0c-.72-12.76,4.49-25.22,4.49-25.22,5.63-1.49,6.47-6.11,6.47-6.11s-1-4.87-2.71-7.24-4.52-.71-4.74-.59c2.12-1.82,2.95-7.92,2.95-7.92l-2.13-3.7c3.66,3.14,8.94,8.47,9.95,13.71,1.58,8.19,3.26,27.45-1.39,40.56S313.32,392.65,313.32,392.65Z" style="fill:#fff;opacity:0.8;isolation:isolate"></path><path d="M308.64,310.51c-1-1.79-8.51-2.18-10.19-1.39s-7.72,5.57-6,6.79,3,4.29,8,3.2S309.92,312.88,308.64,310.51Z" style="fill:#263238"></path><path d="M308.64,310.51c-1-1.79-8.51-2.18-10.19-1.39s-7.72,5.57-6,6.79,3,4.29,8,3.2S309.92,312.88,308.64,310.51Z" style="fill:#fff;opacity:0.30000000000000004;isolation:isolate"></path><path d="M318.23,315.91c-2.68-6-11.87-5.77-15-6.13s-5.74,5.67-6.53,8.19-7.52,1.33-6.73,6.09,3.17,6.53,6.93,7.91S325.15,331.51,318.23,315.91Z" style="fill:#263238"></path><path d="M314.7,328.75c-5.93,3.72-15.58,4.05-17.83,3.22l-.12,0c-3.69-1.38-6-3.17-6.81-7.87s5.94-3.56,6.73-6.09,3.36-8.55,6.53-8.19,12.35.1,15,6.13C321,322.19,318.7,326.24,314.7,328.75Z" style="fill:#fff;opacity:0.8;isolation:isolate"></path><polygon points="291.33 321.78 293.8 322.28 291.33 324.26 291.33 321.78" style="fill:#d4827d"></polygon><path d="M305.51,320.1c0,.69-.38,1.24-.84,1.24s-.84-.55-.84-1.24.37-1.23.84-1.23S305.51,319.42,305.51,320.1Z" style="fill:#263238"></path><path d="M298.78,318.87c0,.68-.37,1.23-.84,1.23s-.84-.55-.84-1.23.38-1.24.84-1.24S298.78,318.18,298.78,318.87Z" style="fill:#263238"></path><path d="M308.64,309.77c-1.95.14-1.29,12.11,0,15s12.16-.79,12.95-3.26S321.1,308.82,308.64,309.77Z" style="fill:#263238"></path><path d="M308.64,309.77c-1.95.14-1.29,12.11,0,15s12.16-.79,12.95-3.26S321.1,308.82,308.64,309.77Z" style="fill:#fff;opacity:0.4;isolation:isolate"></path><path d="M379,290.15c-5.14-.45-15.63,33.07-19.57,36.74s-37.27,13-37.27,13a26.2,26.2,0,0,0-4.72,0c-1.84.27-10.24,2.64-10.24,2.64s3.06,5.87,6.3,6.72c4.11,1.07,10.89-3.49,12.6-5.16,0,0,33.06-3.75,40.28-8.5s14.91-27.3,16.84-33.87S382.08,290.41,379,290.15Z" style="fill:#eec1bb"></path><path d="M314.87,334.38s-9.27-3.24-12.12-.91-2.47,10.29-1.21,11.56,5,2.24,5,.51.13-6.77.13-6.77,4.88,5.22,10,5.64,9.13-6.72,7.36-10.86S318.23,331.31,314.87,334.38Z" style="fill:#263238"></path><path d="M314.87,334.38s-9.27-3.24-12.12-.91-2.47,10.29-1.21,11.56,5,2.24,5,.51.13-6.77.13-6.77,4.88,5.22,10,5.64,9.13-6.72,7.36-10.86S318.23,331.31,314.87,334.38Z" style="fill:#fff;opacity:0.8;isolation:isolate"></path></g><g id="freepik--character-1--inject-17"><g id="freepik--group--inject-17"><polygon points="102.36 390.43 101.53 399.31 122.04 401.99 122.88 393.09 102.36 390.43" style="fill:#e4897b"></polygon><path d="M102.44,400.64l1-10.79a.8.8,0,0,0-.54-.82l-7.75-2.49a1.32,1.32,0,0,0-1.65.86,1,1,0,0,0,0,.29c-.28,3.5-.3,6.06-.71,10.44-.26,2.71-1.31,10.83-1.66,14.56s3.29,4.56,3.77,3.06c2.14-6.7,4.69-11.66,6.86-13.67A2.12,2.12,0,0,0,102.44,400.64Z" style="fill:#263238"></path><path d="M101.15,401.14a.2.2,0,0,1,.2-.14.18.18,0,0,1,.19.12c.17.33,1.67,3.37,1.07,4.3a.64.64,0,0,1-.63.31,1.23,1.23,0,0,1-1.08-.55,2.66,2.66,0,0,1-.3-1.75A10.62,10.62,0,0,1,101.15,401.14Zm.24.63a4.32,4.32,0,0,0-.14,3.18.87.87,0,0,0,.73.36c.17,0,.25-.06.26-.11a.53.53,0,0,0,.08-.27A8.8,8.8,0,0,0,101.39,401.77Z" style="fill:#5082DA"></path><path d="M101.11,401.08a.24.24,0,0,1,.2-.09c.13,0,2.66.48,3.4,1.59a1.15,1.15,0,0,1,.19.92.68.68,0,0,1-.62.62c-1,.09-2.74-1.86-3.16-2.83v-.1A.2.2,0,0,1,101.11,401.08Zm3.33,1.75a5,5,0,0,0-2.69-1.32c.61,1,2,2.25,2.57,2.19.06,0,.22,0,.24-.28v-.1A.7.7,0,0,0,104.44,402.83Z" style="fill:#5082DA"></path><polygon points="122.86 393.09 122.03 401.98 111.45 400.6 112.29 391.71 122.86 393.09" style="opacity:0.2;isolation:isolate"></polygon><polygon points="200.24 408.57 209.92 410.62 220.27 393.6 210.59 391.56 200.24 408.57" style="fill:#e4897b"></polygon><path d="M211.88,406.52H201a.77.77,0,0,0-.76.61l-1.76,7.95a1.31,1.31,0,0,0,1,1.56l.29,0c3.51-.06,6.06-.28,10.47-.28,2.71,0,10.9.29,14.64.29s4.24-3.7,2.7-4c-6.87-1.5-12-3.58-14.25-5.56A2.19,2.19,0,0,0,211.88,406.52Z" style="fill:#263238"></path><path d="M212.49,407.75a.21.21,0,0,1-.16-.18.2.2,0,0,1,.1-.2c.32-.21,3.21-2,4.19-1.47a.65.65,0,0,1,.37.59,1.25,1.25,0,0,1-.45,1.14,2.65,2.65,0,0,1-1.71.45A10.32,10.32,0,0,1,212.49,407.75Zm.61-.29a4.37,4.37,0,0,0,3.18-.16.88.88,0,0,0,.29-.76c0-.17-.08-.25-.14-.25a.63.63,0,0,0-.27-.06A8.68,8.68,0,0,0,213.1,407.46Z" style="fill:#5082DA"></path><path d="M212.43,407.8a.24.24,0,0,1-.1-.19c0-.13.23-2.69,1.26-3.53a1.14,1.14,0,0,1,.9-.28.7.7,0,0,1,.68.56c.18.94-1.6,2.91-2.52,3.41h-.1A.24.24,0,0,1,212.43,407.8Zm1.43-3.47a5,5,0,0,0-1.05,2.79c.92-.69,2.05-2.18,1.94-2.76,0-.06,0-.21-.31-.21h-.1A.74.74,0,0,0,213.86,404.33Z" style="fill:#5082DA"></path><polygon points="210.59 391.56 220.27 393.6 214.93 402.38 205.24 400.33 210.59 391.56" style="opacity:0.2;isolation:isolate"></polygon><path d="M173.59,364.87c.52,0,1.06-.05,1.6-.1,11-.91,22.44-3.76,31.29-6.42,9.12-2.75,15.43-5.31,15.43-5.31,2.09,12.1-17.55,44.59-17.55,44.59l16,1s44.84-52.22,25.74-72.83c-14.27-15.39-53,1.32-53,1.32l-53,.38S136.28,366.86,173.59,364.87Z" style="fill:#5082DA"></path><path d="M173.59,364.87c.52,0,1.06-.05,1.6-.1,11-.91,22.44-3.76,31.29-6.42,9.12-2.75,15.43-5.31,15.43-5.31,2.09,12.1-17.55,44.59-17.55,44.59l16,1s44.84-52.22,25.74-72.83c-14.27-15.39-53,1.32-53,1.32l-53,.38S136.28,366.86,173.59,364.87Z" style="opacity:0.2;isolation:isolate"></path><path d="M173.59,364.87c.52,0,1.06-.05,1.6-.1,11-.91,22.44-3.76,31.29-6.42-15.53-2.85-30.35-14-30.35-14Z" style="opacity:0.2;isolation:isolate"></path><path d="M178.83,333.27c3.26,4.82,17.14,63.85-2.48,77.75-14.41,10.21-61.55-6.71-61.55-6.71l1-14.78s38,5.84,42.54,1.89-16.09-39.91-17.18-49.57S178.83,333.27,178.83,333.27Z" style="fill:#5082DA"></path><path d="M178.83,333.27c3.26,4.82,17.14,63.85-2.48,77.75-14.41,10.21-61.55-6.71-61.55-6.71l1-14.78s38,5.84,42.54,1.89-16.09-39.91-17.18-49.57S178.83,333.27,178.83,333.27Z" style="opacity:0.2;isolation:isolate"></path><path d="M278.72,331.21c-11.86-3.45-39.7-12-43.56-17.6-4.92-7.09-14.76-41.36-14.76-41.36l-14.09,11.06s16.24,33.4,17.83,37.38c2.31,5.78,38.91,15.13,51.43,18.18,1-1.52,2.09-3,3.15-4.52Z" style="fill:#dd857c"></path><path d="M218.27,265.44C224.57,273,229.49,289,229.49,289a26.8,26.8,0,0,1-19.28,10s-3.37-9.16-11.72-10L207,268.28Z" style="fill:#263238"></path><path d="M229.5,289a26.83,26.83,0,0,1-19.29,10,17,17,0,0,0-1-2c-1.49-2.67-4.74-7.12-10.27-7.9a2.62,2.62,0,0,0-.5-.07L207,268.28l11.24-2.84a36.07,36.07,0,0,1,3.61,5.41l.31.56h0a92,92,0,0,1,4.5,9.77c.08.2.16.39.23.58C228.54,285.89,229.5,289,229.5,289Z" style="fill:#fff;opacity:0.1;isolation:isolate"></path><path d="M199,289.06c5.53.78,8.78,5.23,10.27,7.9.35-7.54-3.67-18.27-3.67-18.27Z" style="opacity:0.2;isolation:isolate"></path><polygon points="209.27 298.99 229.5 287.38 230.9 291.08 211.07 302.42 209.27 298.99" style="fill:#5082DA"></polygon><path d="M226.93,281.76a3.43,3.43,0,0,1-1.62,1.44c-2.32.95-5.32-1-6.7-4.34s-.62-6.84,1.7-7.79a3.23,3.23,0,0,1,1.57-.22l.31.56h0a92,92,0,0,1,4.5,9.77C226.78,281.38,226.86,281.57,226.93,281.76Z" style="opacity:0.2;isolation:isolate"></path><path d="M226.7,281.18a3.05,3.05,0,0,1-1.48,1.34c-2.08.86-4.78-.89-6-3.9s-.56-6.15,1.52-7a3.06,3.06,0,0,1,1.47-.2h0A92,92,0,0,1,226.7,281.18Z" style="fill:#fff;opacity:0.30000000000000004;isolation:isolate"></path><polygon points="219.65 400.53 203.66 397.97 205.19 393.62 222.59 397.25 219.65 400.53" style="fill:#5082DA"></polygon><path d="M272.06,337.83c-1.63-2.2,2.78-7.53,2.78-7.53,1.42,0,6.41.8,11.41,1.63s4,2.44,2.12,5.42-3.21,6.33-6.2,6.48Z" style="fill:#dd857c"></path><polygon points="117.84 388.4 116.65 406.24 112.18 405.11 114.2 387.45 117.84 388.4" style="fill:#5082DA"></polygon><path d="M140.18,327.5l52.61,3.78s8.16-49.94,25.48-65.84a42.69,42.69,0,0,0-8.94-7.36,54,54,0,0,0-23.79-8.23A61.85,61.85,0,0,0,166.29,251S142.45,278.69,140.18,327.5Z" style="fill:#263238"></path><g style="opacity:0.2;isolation:isolate"><path d="M140.18,327.5l52.61,3.78s8.16-49.94,25.48-65.84a42.69,42.69,0,0,0-8.94-7.36,54,54,0,0,0-23.79-8.23A61.85,61.85,0,0,0,166.29,251S142.45,278.69,140.18,327.5Z" style="fill:#fff"></path></g><path d="M198.67,260.09s-18.57,38.7-18.54,57.54A367.38,367.38,0,0,1,201,260.09Z" style="fill:#5082DA"></path><polygon points="196.95 277.45 205.58 278.69 204.13 280.98 196.43 279.34 196.95 277.45" style="fill:#5082DA"></polygon><path d="M186.45,250.81c-1.62,5.81,15.13,14,21,8.17-3.17-2.39-4-4.89-3.6-7.33a11.24,11.24,0,0,1,1.73-4.14,21.91,21.91,0,0,1,1.45-2.06l-7.12-14.76C198.44,237.19,195.15,251.85,186.45,250.81Z" style="fill:#e4897b"></path><path d="M199.72,237.59c-3.21,7.24,1.52,12.19,4.13,14.06a11.24,11.24,0,0,1,1.73-4.14Z" style="opacity:0.2;isolation:isolate"></path><path d="M176.9,270.68s9.77,29.62,16.41,36.34c5.82,5.88,34.86,19.47,34.86,19.47L226.22,333s-36.43-12.19-42.84-18.28c-7.72-7.34-18.88-34.76-18.88-34.76Z" style="fill:#e4897b"></path><path d="M226.5,334.8c-1.41-1-4-6.09-4-6.09l5.06-2.33c1.26.56,11.48.15,13,.95,1.7.88-1.72,7.72-2.53,8.9Z" style="fill:#e4897b"></path><path d="M166.3,251c8.89-3.76,17.4,29.75,17.4,29.75l-15.89,9.65S143.59,260.63,166.3,251Z" style="fill:#263238"></path><path d="M166.3,251c8.89-3.76,17.4,29.75,17.4,29.75l-15.89,9.65S143.59,260.63,166.3,251Z" style="fill:#fff;opacity:0.1;isolation:isolate"></path><path d="M171.72,267.84c0,3.39-2.39,6.15-5.35,6.15s-5.34-2.76-5.34-6.15,2.39-6.16,5.34-6.16S171.72,264.44,171.72,267.84Z" style="opacity:0.2;isolation:isolate"></path><path d="M171,267.84c0,2.93-2.07,5.3-4.62,5.3s-4.61-2.37-4.61-5.3,2.07-5.31,4.61-5.31S171,264.9,171,267.84Z" style="fill:#fff;opacity:0.30000000000000004;isolation:isolate"></path><polygon points="166.38 290.42 183.7 279.34 184.91 282.77 168.26 293.45 166.38 290.42" style="fill:#5082DA"></polygon><path d="M192.79,247c.5,5.8,7,13.22,7,13.22,4.32-2.8,4-8.57,4-8.57l4.37,7s-1.3,7.61-5.1,9.2l-3.36-6L191.9,267s-9.49-10.79-6.36-17.1Z" style="fill:#5082DA"></path><path d="M192.79,247c.5,5.8,7,13.22,7,13.22,4.32-2.8,4-8.57,4-8.57l4.37,7s-1.3,7.61-5.1,9.2l-3.36-6L191.9,267s-9.49-10.79-6.36-17.1Z" style="fill:#fff;opacity:0.1;isolation:isolate"></path><path d="M228.32,225.51s-2.06,10-9.81,12.22.11-19.3.11-19.3Z" style="fill:#263238"></path><path d="M197.35,240.39a11.17,11.17,0,0,0,10.55,8.47,12.39,12.39,0,0,0,8.65-3,11.52,11.52,0,0,0,1-.9c5.6-5.95,11.08-17.95,5.31-25.31a12.1,12.1,0,0,0-20.49,2.21C198.4,229.78,195.71,234.25,197.35,240.39Z" style="fill:#e4897b"></path><path d="M212.75,230.68a1.11,1.11,0,0,0,.09,1.55c.42.24,1-.09,1.39-.7s.31-1.33-.09-1.56S213.11,230.05,212.75,230.68Z" style="fill:#263238"></path><path d="M219.81,234.73a1.11,1.11,0,0,0,.09,1.55c.41.23,1-.09,1.39-.71s.31-1.32-.09-1.55S220.15,234.13,219.81,234.73Z" style="fill:#263238"></path><path d="M217.39,233.75a25.61,25.61,0,0,0-.08,7.05,4.17,4.17,0,0,1-3.32-1.16Z" style="fill:#de5753"></path><path d="M211.86,227.14a.44.44,0,0,0,.44.06,3.41,3.41,0,0,1,3,.12.42.42,0,1,0,.47-.7h0a4.17,4.17,0,0,0-3.84-.2.42.42,0,0,0-.24.55h0A1,1,0,0,0,211.86,227.14Z" style="fill:#263238"></path><path d="M211.12,242.29h0a6.46,6.46,0,0,1-4-4.49.23.23,0,0,1,.18-.26.22.22,0,0,1,.26.16v0a6.22,6.22,0,0,0,3.69,4.16.21.21,0,0,1,.13.27v0a.21.21,0,0,1-.28.13Z" style="fill:#263238"></path><path d="M224.23,234a.49.49,0,0,0,.21.14.41.41,0,0,0,.45-.39h0a4.22,4.22,0,0,0-1.46-3.57.43.43,0,0,0-.59.08h0a.41.41,0,0,0,.08.58h0a3.41,3.41,0,0,1,1.11,2.85A.46.46,0,0,0,224.23,234Z" style="fill:#263238"></path><path d="M197.23,226.51c1.75-7.82,4.55-13.54,7.35-14.84s9.75,8.3,9.75,8.3c-1.93-1.54-4.94-.67-5.2,1.83-.37,3.49-4.34,7.17-7.5,7.83,0,0,.57-1.3-.65-1.54s-4.29,6.49-3.81,10.69C197.17,238.78,195.47,234.33,197.23,226.51Z" style="fill:#263238"></path><path d="M195.38,226.24a8.44,8.44,0,0,0,2.07,6.09c2,2.2,4.53.83,5.32-1.85.69-2.39.54-6.48-2.09-7.68S195.59,223.51,195.38,226.24Z" style="fill:#e4897b"></path><path d="M214.33,220s5.8,9,12.37,6.08l1.62-.54s5.09-3.27,3-6.3-4.6-2.9-4.6-2.9-4.8-7.78-13.22-8.44-13.19,3.31-14.24,11.74C199.24,219.61,210.63,215.88,214.33,220Z" style="fill:#263238"></path><path d="M204.07,228.16a46.45,46.45,0,0,0-.65,7s4-.12,5.33.67,2.32,3.63,2.32,3.63l-.94.86s-1.28-3.43-2.68-3.56-3.71,2.77-2.86,5.14,3.63.73,3.63.73l2,1.25a1.37,1.37,0,0,0-.46,2c.79,1.2,3.3-.45,4.19-2.23s-3.2-2.78-3.2-2.78l.92-.89s4.57.26,4.95,2.88a9.52,9.52,0,0,0,4.87-3.31s-3.2,8.92-6.44,9.64c0,0-2.12,3.76-6.21,3a9.2,9.2,0,0,1-5.76-3.24s-.81.85-3-1.25-.88-6.26-.88-6.26a2.5,2.5,0,0,1-1.31-1.78c-.39-1.45.39-4.65,3.86-7.27a7.13,7.13,0,0,0,1.31-3.87Z" style="fill:#263238"></path><path d="M216.32,233.94a2.33,2.33,0,1,1-2.33-2.32A2.33,2.33,0,0,1,216.32,233.94Z" style="fill:none;stroke:#5082DA;stroke-miterlimit:10;stroke-width:0.5px"></path><path d="M222.87,237a2.33,2.33,0,1,1-2.33-2.33A2.33,2.33,0,0,1,222.87,237Z" style="fill:none;stroke:#5082DA;stroke-miterlimit:10;stroke-width:0.5px"></path><path d="M216.12,234.88s1.91-.42,2.28,1.2" style="fill:none;stroke:#5082DA;stroke-miterlimit:10;stroke-width:0.5px"></path><path d="M212,232.74l-.93-.43s-7-8-8.19-8.09" style="fill:none;stroke:#5082DA;stroke-miterlimit:10;stroke-width:0.5px"></path><path d="M292.74,335a2.21,2.21,0,0,0,.42-2.76,2.19,2.19,0,0,0-2-1.09,2.22,2.22,0,0,0-2.09,2.85h0l-8.21,2.46h0a2.23,2.23,0,0,0-3.31-1.25,2.22,2.22,0,0,0,.83,4.06,2.22,2.22,0,1,0,3.62,1h0l8.21-2.46v0a2.22,2.22,0,1,0,2.48-2.82Z" style="fill:#5082DA"></path></g></g></svg>